<svg width="800" height="400" xmlns="http://www.w3.org/2000/svg">
      <defs>
        <linearGradient id="areaGrad" x1="0%" y1="0%" x2="0%" y2="100%">
          <stop offset="0%" style="stop-color:#e74c3c;stop-opacity:0.3"/>
          <stop offset="100%" style="stop-color:#e74c3c;stop-opacity:0.05"/>
        </linearGradient>
      </defs>
      <rect width="100%" height="100%" fill="#ffffff"/>
      
      <!-- 标题 -->
      <text x="400" y="30" fill="#333" font-size="16" font-weight="bold" text-anchor="middle" font-family="sans-serif">Code History</text>
      
      <!-- 图例 -->
      <rect x="80" y="45" width="12" height="12" fill="#e74c3c" rx="2"/>
      <text x="98" y="55" fill="#333" font-size="11" font-family="sans-serif">junjiezhang207/yiyujianli</text>
      
      <!-- Y轴标签 -->
      <text x="20" y="200" fill="#666" font-size="12" text-anchor="middle" font-family="sans-serif" transform="rotate(-90, 20, 200)">Lines of Code</text>
      
      <!-- 网格线和Y轴刻度 -->
      <text x="70" y="344.0" fill="#666" font-size="12" text-anchor="end" font-family="sans-serif">0</text><line x1="80" y1="340.0" x2="760" y2="340.0" stroke="#eee" stroke-width="1"/><text x="70" y="288.0" fill="#666" font-size="12" text-anchor="end" font-family="sans-serif">33.7k</text><line x1="80" y1="284.0" x2="760" y2="284.0" stroke="#eee" stroke-width="1"/><text x="70" y="232.0" fill="#666" font-size="12" text-anchor="end" font-family="sans-serif">67.4k</text><line x1="80" y1="228.0" x2="760" y2="228.0" stroke="#eee" stroke-width="1"/><text x="70" y="176.0" fill="#666" font-size="12" text-anchor="end" font-family="sans-serif">101.0k</text><line x1="80" y1="172.0" x2="760" y2="172.0" stroke="#eee" stroke-width="1"/><text x="70" y="120.0" fill="#666" font-size="12" text-anchor="end" font-family="sans-serif">134.7k</text><line x1="80" y1="116.0" x2="760" y2="116.0" stroke="#eee" stroke-width="1"/><text x="70" y="64.0" fill="#666" font-size="12" text-anchor="end" font-family="sans-serif">168.4k</text><line x1="80" y1="60.0" x2="760" y2="60.0" stroke="#eee" stroke-width="1"/>
      
      <!-- 坐标轴 -->
      <line x1="80" y1="60" x2="80" y2="340" stroke="#ccc" stroke-width="1"/>
      <line x1="80" y1="340" x2="760" y2="340" stroke="#ccc" stroke-width="1"/>
      
      <!-- 填充区域 -->
      <polygon points="80,340 80.0,327.8749085588881 86.8,327.47755536343686 93.6,321.8846844450356 100.4,320.0508745095431 107.2,320.0508745095431 114.0,320.35346146172776 120.8,315.93768703863805 127.6,312.34322005719224 134.4,312.34322005719224 141.2,312.34322005719224 148.0,310.5210480813992 154.8,311.0015295604176 161.6,308.7038638026202 168.4,307.0379729999335 175.2,307.0379729999335 182.0,304.15508412582295 188.8,303.8874110527366 195.60000000000002,303.8874110527366 202.39999999999998,303.8874110527366 209.2,303.8874110527366 216.0,291.9867659772561 222.79999999999998,292.6468045487797 229.6,289.06397552703334 236.4,289.06397552703334 243.2,285.90842588282237 250.0,222.33690230764117 256.8,222.3535279643546 263.6,222.2022344882623 270.4,222.17729600319214 277.2,222.17729600319214 284.0,222.17729600319214 290.8,222.17729600319214 297.6,222.17729600319214 304.4,219.71004854691762 311.20000000000005,218.82556360976258 318.0,218.82556360976258 324.79999999999995,218.82556360976258 331.6,218.82556360976258 338.4,218.82556360976258 345.2,218.82556360976258 352.0,218.82556360976258 358.8,218.82556360976258 365.59999999999997,218.82556360976258 372.4,216.67254106537212 379.2,207.0978253641019 386.0,205.26734055995215 392.8,205.42362173305847 399.59999999999997,205.30225443905036 406.4,204.43605772428012 413.2,203.66296468710516 420.0,202.05360111724414 426.8,183.90835938019555 433.6,85.4545454545455 440.40000000000003,85.4545454545455 447.20000000000005,85.4545454545455 454.00000000000006,85.4545454545455 460.8,85.4545454545455 467.59999999999997,85.4545454545455 474.4,85.4545454545455 481.2,85.4545454545455 488.0,85.4545454545455 494.8,85.4545454545455 501.6,85.4545454545455 508.4,85.4545454545455 515.2,85.4545454545455 522.0,85.4545454545455 528.8,85.4545454545455 535.6,85.4545454545455 542.4000000000001,85.4545454545455 549.2,85.4545454545455 556.0,85.4545454545455 562.8,85.4545454545455 569.5999999999999,85.4545454545455 576.4,85.4545454545455 583.2,85.4545454545455 590.0,85.4545454545455 596.8,85.4545454545455 603.6,85.4545454545455 610.4,85.4545454545455 617.2,85.4545454545455 624.0,85.4545454545455 630.8000000000001,85.4545454545455 637.6,85.4545454545455 644.4,85.4545454545455 651.1999999999999,85.4545454545455 658.0,85.4545454545455 664.8,85.4545454545455 671.6,85.4545454545455 678.4,85.4545454545455 685.2,85.4545454545455 692.0,85.4545454545455 698.8000000000001,85.4545454545455 705.6,85.4545454545455 712.4,85.4545454545455 719.1999999999999,85.4545454545455 726.0,85.4545454545455 732.8,85.4545454545455 739.6,85.4545454545455 746.4,85.4545454545455 753.2,85.4545454545455 760.0,85.4545454545455 760.0,340" fill="url(#areaGrad)"/>
      
      <!-- 折线 -->
      <polyline points="80.0,327.8749085588881 86.8,327.47755536343686 93.6,321.8846844450356 100.4,320.0508745095431 107.2,320.0508745095431 114.0,320.35346146172776 120.8,315.93768703863805 127.6,312.34322005719224 134.4,312.34322005719224 141.2,312.34322005719224 148.0,310.5210480813992 154.8,311.0015295604176 161.6,308.7038638026202 168.4,307.0379729999335 175.2,307.0379729999335 182.0,304.15508412582295 188.8,303.8874110527366 195.60000000000002,303.8874110527366 202.39999999999998,303.8874110527366 209.2,303.8874110527366 216.0,291.9867659772561 222.79999999999998,292.6468045487797 229.6,289.06397552703334 236.4,289.06397552703334 243.2,285.90842588282237 250.0,222.33690230764117 256.8,222.3535279643546 263.6,222.2022344882623 270.4,222.17729600319214 277.2,222.17729600319214 284.0,222.17729600319214 290.8,222.17729600319214 297.6,222.17729600319214 304.4,219.71004854691762 311.20000000000005,218.82556360976258 318.0,218.82556360976258 324.79999999999995,218.82556360976258 331.6,218.82556360976258 338.4,218.82556360976258 345.2,218.82556360976258 352.0,218.82556360976258 358.8,218.82556360976258 365.59999999999997,218.82556360976258 372.4,216.67254106537212 379.2,207.0978253641019 386.0,205.26734055995215 392.8,205.42362173305847 399.59999999999997,205.30225443905036 406.4,204.43605772428012 413.2,203.66296468710516 420.0,202.05360111724414 426.8,183.90835938019555 433.6,85.4545454545455 440.40000000000003,85.4545454545455 447.20000000000005,85.4545454545455 454.00000000000006,85.4545454545455 460.8,85.4545454545455 467.59999999999997,85.4545454545455 474.4,85.4545454545455 481.2,85.4545454545455 488.0,85.4545454545455 494.8,85.4545454545455 501.6,85.4545454545455 508.4,85.4545454545455 515.2,85.4545454545455 522.0,85.4545454545455 528.8,85.4545454545455 535.6,85.4545454545455 542.4000000000001,85.4545454545455 549.2,85.4545454545455 556.0,85.4545454545455 562.8,85.4545454545455 569.5999999999999,85.4545454545455 576.4,85.4545454545455 583.2,85.4545454545455 590.0,85.4545454545455 596.8,85.4545454545455 603.6,85.4545454545455 610.4,85.4545454545455 617.2,85.4545454545455 624.0,85.4545454545455 630.8000000000001,85.4545454545455 637.6,85.4545454545455 644.4,85.4545454545455 651.1999999999999,85.4545454545455 658.0,85.4545454545455 664.8,85.4545454545455 671.6,85.4545454545455 678.4,85.4545454545455 685.2,85.4545454545455 692.0,85.4545454545455 698.8000000000001,85.4545454545455 705.6,85.4545454545455 712.4,85.4545454545455 719.1999999999999,85.4545454545455 726.0,85.4545454545455 732.8,85.4545454545455 739.6,85.4545454545455 746.4,85.4545454545455 753.2,85.4545454545455 760.0,85.4545454545455" fill="none" stroke="#e74c3c" stroke-width="2.5"/>
      
      <!-- X轴标签 -->
      <text x="80.0" y="375" fill="#666" font-size="11" text-anchor="middle" font-family="sans-serif">12-07</text><text x="216.0" y="375" fill="#666" font-size="11" text-anchor="middle" font-family="sans-serif">01-14</text><text x="352.0" y="375" fill="#666" font-size="11" text-anchor="middle" font-family="sans-serif">02-03</text><text x="488.0" y="375" fill="#666" font-size="11" text-anchor="middle" font-family="sans-serif">08-29</text><text x="624.0" y="375" fill="#666" font-size="11" text-anchor="middle" font-family="sans-serif">09-18</text><text x="760.0" y="375" fill="#666" font-size="11" text-anchor="middle" font-family="sans-serif">10-08</text>
      <text x="400" y="395" fill="#666" font-size="12" text-anchor="middle" font-family="sans-serif">Date</text>
      
      <!-- 当前值标注 -->
      <circle cx="760.0" cy="85.4545454545455" r="4" fill="#e74c3c"/>
      <text x="768.0" y="77.4545454545455" fill="#e74c3c" font-size="12" font-weight="bold" font-family="sans-serif">153104</text>
    </svg>